# xmcd
#
# Track frame offsets:
#	150
#	17123
#	31922
#	48856
#	66569
#	79695
#	95158
#	111964
#	127229
#	143364
#	163187
#	179480
#	195765
#	212384
#	228308
#	241725
#	256242
#	270107
#	283601
#	297766
#	308304
#	325385
#
# Disc length: 4556 seconds
#
# Revision: 1
# Processed by: cddbd v1.5.2PL0 Copyright (c) Steve Scherf et al.
# Submitted via: audiograbber 1.83.01
#
DISCID=2b11ca16
DTITLE=Various Artist - Все звезды для любимой 2004
DYEAR=1900
DGENRE=
TTITLE0=А. Стоцкая - Дай мне пять минут
TTITLE1=А. Буйнов - Горький мед
TTITLE2=С. Ротару - Коварные мужики
TTITLE3=А. Руссо - Знаю (remix)
TTITLE4=ВИА Гра - Не надо (remix)
TTITLE5=А. Малинин - Если бы не ты
TTITLE6=Л. Долина и А. Панойтов - Лунная мелодия
TTITLE7=Т. Буланова - Вот такие дела (remix)
TTITLE8=Премьер министр - Наташка
TTITLE9=Д. Маликов - Ты моей никогда не будешь 2004
TTITLE10=Н. Королева - Ревнуй
TTITLE11=В. Меладзе - Переменится ветер
TTITLE12=Валерия - Страна любви
TTITLE13=М. Насыров - Красавица
TTITLE14=Жасмин и Чай вдвоем - Бывает так
TTITLE15=И. Аллегрова - Вспоминай меня
TTITLE16=А. Апина - Здравствуй малыш
TTITLE17=Сердючка - Полоса
TTITLE18=Фабрика звезд 3 - Маша and Саша
TTITLE19=Витас - Невезучий
TTITLE20=С. Жуков и Е. Польна - Полечу за тобой
TTITLE21=Столичный сувенир - В последний раз
EXTD=
EXTT0=
EXTT1=
EXTT2=
EXTT3=
EXTT4=
EXTT5=
EXTT6=
EXTT7=
EXTT8=
EXTT9=
EXTT10=
EXTT11=
EXTT12=
EXTT13=
EXTT14=
EXTT15=
EXTT16=
EXTT17=
EXTT18=
EXTT19=
EXTT20=
EXTT21=
PLAYORDER=
